<?xml version="1.0" standalone="no"?>
<!DOCTYPE svg PUBLIC "-//W3C//DTD SVG 20010904//EN"
 "http://www.w3.org/TR/2001/REC-SVG-20010904/DTD/svg10.dtd">
<svg version="1.0" xmlns="http://www.w3.org/2000/svg"
 width="8501.000000pt" height="8500.000000pt" viewBox="0 0 8501.000000 8500.000000"
 preserveAspectRatio="xMidYMid meet">

<g transform="translate(0.000000,8500.000000) scale(0.100000,-0.100000)"
fill="#000000" stroke="none">
<path d="M46680 56303 c-722 -38 -1193 -89 -1772 -194 -916 -165 -1854 -452
-2635 -805 -2229 -1009 -4281 -2897 -6404 -5894 -932 -1315 -1630 -2423 -3291
-5225 -604 -1019 -984 -1652 -1224 -2043 l-144 -233 20 -167 c152 -1221 539
-2361 1137 -3345 616 -1014 1426 -1804 2379 -2320 131 -71 412 -206 460 -221
17 -5 36 17 131 151 462 659 926 1376 1476 2280 383 629 730 1221 1662 2833
1968 3405 2980 4923 4163 6250 210 236 807 831 1017 1015 1438 1255 2824 1844
4425 1882 632 14 1200 -69 1773 -261 916 -307 1717 -874 2421 -1716 1542
-1843 2216 -4655 1880 -7840 -342 -3247 -1711 -6228 -4215 -9180 -611 -720
-1514 -1610 -2324 -2290 -126 -106 -237 -199 -245 -206 -12 -12 626 -14 4111
-14 l4125 0 31 43 c730 1015 1183 1729 1697 2672 159 292 503 972 636 1260 51
110 149 319 218 465 1039 2205 1613 4260 1851 6635 77 763 106 1438 98 2265
-6 553 -12 718 -42 1165 -235 3416 -1375 6453 -3271 8712 -323 384 -849 930
-1199 1243 -1071 958 -2187 1654 -3475 2165 -1355 538 -2768 839 -4299 915
-179 9 -1021 11 -1171 3z"/>
<path d="M13851 55918 c-416 -560 -896 -1288 -1278 -1938 -1470 -2500 -2422
-5210 -2803 -7975 -240 -1744 -279 -3503 -114 -5100 175 -1693 581 -3263 1210
-4680 119 -268 395 -821 538 -1077 742 -1329 1724 -2533 2876 -3524 1800
-1550 4219 -2561 6810 -2848 614 -68 866 -81 1610 -81 684 1 846 7 1355 55
1713 162 3349 619 4830 1350 382 189 1020 544 1020 568 0 5 -72 65 -160 132
-1111 853 -2135 1951 -2934 3149 -385 576 -759 1239 -1021 1811 -29 63 -56
119 -60 123 -4 5 -70 -26 -146 -69 -1359 -761 -2783 -1063 -4234 -898 -520 59
-1074 201 -1582 405 -194 77 -591 272 -773 379 -1002 588 -1849 1459 -2487
2555 -641 1103 -1047 2413 -1162 3755 -52 596 -52 1438 0 2130 198 2678 1150
5274 2810 7665 735 1059 1638 2112 2617 3052 469 450 672 633 1102 991 149
124 274 229 279 233 6 5 -1783 9 -4082 9 l-4092 0 -129 -172z"/>
</g>
</svg>
